<?xml version="1.0" encoding="UTF-8"?>
<svg id="Calque_2" data-name="Calque 2" xmlns="http://www.w3.org/2000/svg" viewBox="0 0 12.85 18.59">
  <defs>
    <style>
      .cls-1 {
        stroke-miterlimit: 10;
        stroke-width: 1.5px;
      }

      .cls-1, .cls-2 {
        fill: none;
        stroke: #fff;
      }

      .cls-2 {
        stroke-linecap: round;
        stroke-linejoin: round;
      }
    </style>
  </defs>
  <g id="Calque_2-2" data-name="Calque 2">
    <g>
      <polyline class="cls-2" points="7.83 5.28 6.42 6.69 5.02 5.28"/>
      <polyline class="cls-2" points="8.59 7.13 6.42 9.29 4.26 7.13"/>
      <path class="cls-1" d="M6.42,17.84c-1.6,0-2.8-.64-3.67-1.44-1.34-1.23-2-3.03-2-4.84v-4.7c0-1.12.25-2.23.8-3.2C2.32,2.28,3.77.75,6.42.75c2.65,0,4.11,1.53,4.88,2.9.55.98.8,2.09.8,3.2v4.7c0,1.81-.66,3.61-2,4.84-.87.8-2.07,1.44-3.67,1.44"/>
    </g>
  </g>
</svg>