<svg xmlns="http://www.w3.org/2000/svg" viewBox="0 0 210 180">
  <!-- Dumbo octopus silhouette - segmented for wave animation -->
  <!-- Body/mantle -->
  <path d="M 35 85 C 35 50 55 25 85 25 C 112 25 128 50 128 78 C 128 110 112 142 85 145 C 55 148 35 118 35 85 Z"/>
  <!-- Top ear fin -->
  <path d="M 62 38 C 48 20 28 4 16 2 C 10 0 8 8 14 18 C 25 35 48 48 62 45 Z"/>
  <!-- Bottom ear fin -->
  <path d="M 55 130 C 44 148 28 165 18 172 C 12 176 12 168 18 158 C 30 142 46 130 55 128 Z"/>
  <!-- Tentacle 1 (top) -->
  <path d="M 120 48 C 140 38 165 30 185 32 C 194 33 196 40 188 44 C 168 50 145 54 124 56 Z"/>
  <!-- Tentacle 2 -->
  <path d="M 124 66 C 146 56 174 48 196 50 C 206 51 208 58 200 62 C 180 68 155 72 128 72 Z"/>
  <!-- Tentacle 3 -->
  <path d="M 124 84 C 148 74 178 68 198 70 C 208 71 210 78 202 82 C 182 88 156 92 128 90 Z"/>
  <!-- Tentacle 4 (bottom) -->
  <path d="M 120 102 C 142 92 170 88 190 92 C 200 94 200 102 192 106 C 172 112 148 114 124 110 Z"/>
</svg>
